#N canvas 189 61 813 555 10;
#X declare -lib mrpeach;
#X obj -792 420 adc~;
#X msg -1180 318 \; pd dsp 1;
#X msg -1179 355 \; pd dsp 0;
#X obj -1114 118 udpsend;
#X msg -1098 98 disconnect;
#X obj -1171 130 packOSC;
#X obj -1114 147 tgl 30 0 empty empty 1=connected 35 8 0 10 -33289
-258113 -1 1 1;
#X msg -1098 70 connect 127.0.0.1 7700;
#X obj -791 463 cad_specanalyze;
#X msg -1179 408 bang;
#X msg -1166 434 stop;
#X obj -1179 510 s tick;
#N canvas 76 39 1105 688 hugestuff 0;
#X obj -443 1 unpack f f f f f f f f f f f f f f f f f f f f f f f
f f f f f f f f f;
#X obj -443 -29 inlet;
#N canvas 792 121 279 278 channelnorm 0;
#X obj -150 20 inlet;
#X obj -150 184 outlet;
#X obj -150 56 cad_stretch;
#X obj -87 28 r stretchp;
#X obj -150 141 abs;
#X obj -150 85 div 1;
#X obj -150 114 - 47;
#X connect 0 0 2 0;
#X connect 2 0 5 0;
#X connect 3 0 2 1;
#X connect 4 0 1 0;
#X connect 5 0 6 0;
#X connect 6 0 4 0;
#X restore -636 80 pd channelnorm;
#X obj -636 167 s caduosc;
#X msg 140 167 /updatescreen;
#X obj 140 197 s caduosc;
#X obj 219 94 r tick;
#X obj 323 230 s caduosc;
#X obj 238 201 s godata;
#X obj 219 124 t b b b;
#X obj -636 101 r godata;
#N canvas 377 98 279 278 channelnorm 0;
#X obj -150 20 inlet;
#X obj -150 184 outlet;
#X obj -150 56 cad_stretch;
#X obj -87 28 r stretchp;
#X obj -150 141 abs;
#X obj -150 85 div 1;
#X obj -150 114 - 47;
#X connect 0 0 2 0;
#X connect 2 0 5 0;
#X connect 3 0 2 1;
#X connect 4 0 1 0;
#X connect 5 0 6 0;
#X connect 6 0 4 0;
#X restore -620 200 pd channelnorm;
#X obj -620 246 pack f f;
#X obj -620 287 s caduosc;
#X obj -620 221 r godata;
#N canvas 377 98 279 278 channelnorm 0;
#X obj -150 20 inlet;
#X obj -150 184 outlet;
#X obj -150 56 cad_stretch;
#X obj -87 28 r stretchp;
#X obj -150 141 abs;
#X obj -150 85 div 1;
#X obj -150 114 - 47;
#X connect 0 0 2 0;
#X connect 2 0 5 0;
#X connect 3 0 2 1;
#X connect 4 0 1 0;
#X connect 5 0 6 0;
#X connect 6 0 4 0;
#X restore -607 321 pd channelnorm;
#X obj -607 367 pack f f;
#X obj -607 408 s caduosc;
#X obj -607 342 r godata;
#N canvas 377 98 279 278 channelnorm 0;
#X obj -150 20 inlet;
#X obj -150 184 outlet;
#X obj -150 56 cad_stretch;
#X obj -87 28 r stretchp;
#X obj -150 141 abs;
#X obj -150 85 div 1;
#X obj -150 114 - 47;
#X connect 0 0 2 0;
#X connect 2 0 5 0;
#X connect 3 0 2 1;
#X connect 4 0 1 0;
#X connect 5 0 6 0;
#X connect 6 0 4 0;
#X restore -598 435 pd channelnorm;
#X obj -598 481 pack f f;
#X obj -598 522 s caduosc;
#X obj -598 456 r godata;
#N canvas 377 98 279 278 channelnorm 0;
#X obj -150 20 inlet;
#X obj -150 184 outlet;
#X obj -150 56 cad_stretch;
#X obj -87 28 r stretchp;
#X obj -150 141 abs;
#X obj -150 85 div 1;
#X obj -150 114 - 47;
#X connect 0 0 2 0;
#X connect 2 0 5 0;
#X connect 3 0 2 1;
#X connect 4 0 1 0;
#X connect 5 0 6 0;
#X connect 6 0 4 0;
#X restore -447 79 pd channelnorm;
#X obj -447 125 pack f f;
#X obj -447 166 s caduosc;
#X obj -447 100 r godata;
#N canvas 377 98 279 278 channelnorm 0;
#X obj -150 20 inlet;
#X obj -150 184 outlet;
#X obj -150 56 cad_stretch;
#X obj -87 28 r stretchp;
#X obj -150 141 abs;
#X obj -150 85 div 1;
#X obj -150 114 - 47;
#X connect 0 0 2 0;
#X connect 2 0 5 0;
#X connect 3 0 2 1;
#X connect 4 0 1 0;
#X connect 5 0 6 0;
#X connect 6 0 4 0;
#X restore -431 199 pd channelnorm;
#X obj -431 245 pack f f;
#X obj -431 286 s caduosc;
#X obj -431 220 r godata;
#N canvas 377 98 279 278 channelnorm 0;
#X obj -150 20 inlet;
#X obj -150 184 outlet;
#X obj -150 56 cad_stretch;
#X obj -87 28 r stretchp;
#X obj -150 141 abs;
#X obj -150 85 div 1;
#X obj -150 114 - 47;
#X connect 0 0 2 0;
#X connect 2 0 5 0;
#X connect 3 0 2 1;
#X connect 4 0 1 0;
#X connect 5 0 6 0;
#X connect 6 0 4 0;
#X restore -418 320 pd channelnorm;
#X obj -418 366 pack f f;
#X obj -418 407 s caduosc;
#X obj -418 341 r godata;
#N canvas 377 98 279 278 channelnorm 0;
#X obj -150 20 inlet;
#X obj -150 184 outlet;
#X obj -150 56 cad_stretch;
#X obj -87 28 r stretchp;
#X obj -150 141 abs;
#X obj -150 85 div 1;
#X obj -150 114 - 47;
#X connect 0 0 2 0;
#X connect 2 0 5 0;
#X connect 3 0 2 1;
#X connect 4 0 1 0;
#X connect 5 0 6 0;
#X connect 6 0 4 0;
#X restore -409 434 pd channelnorm;
#X obj -409 480 pack f f;
#X obj -409 521 s caduosc;
#X obj -409 455 r godata;
#N canvas 377 98 279 278 channelnorm 0;
#X obj -150 20 inlet;
#X obj -150 184 outlet;
#X obj -150 56 cad_stretch;
#X obj -87 28 r stretchp;
#X obj -150 141 abs;
#X obj -150 85 div 1;
#X obj -150 114 - 47;
#X connect 0 0 2 0;
#X connect 2 0 5 0;
#X connect 3 0 2 1;
#X connect 4 0 1 0;
#X connect 5 0 6 0;
#X connect 6 0 4 0;
#X restore -258 87 pd channelnorm;
#X obj -258 133 pack f f;
#X obj -258 174 s caduosc;
#X obj -258 108 r godata;
#N canvas 377 98 279 278 channelnorm 0;
#X obj -150 20 inlet;
#X obj -150 184 outlet;
#X obj -150 56 cad_stretch;
#X obj -87 28 r stretchp;
#X obj -150 141 abs;
#X obj -150 85 div 1;
#X obj -150 114 - 47;
#X connect 0 0 2 0;
#X connect 2 0 5 0;
#X connect 3 0 2 1;
#X connect 4 0 1 0;
#X connect 5 0 6 0;
#X connect 6 0 4 0;
#X restore -242 207 pd channelnorm;
#X obj -242 253 pack f f;
#X obj -242 294 s caduosc;
#X obj -242 228 r godata;
#N canvas 377 98 279 278 channelnorm 0;
#X obj -150 20 inlet;
#X obj -150 184 outlet;
#X obj -150 56 cad_stretch;
#X obj -87 28 r stretchp;
#X obj -150 141 abs;
#X obj -150 85 div 1;
#X obj -150 114 - 47;
#X connect 0 0 2 0;
#X connect 2 0 5 0;
#X connect 3 0 2 1;
#X connect 4 0 1 0;
#X connect 5 0 6 0;
#X connect 6 0 4 0;
#X restore -229 328 pd channelnorm;
#X obj -229 374 pack f f;
#X obj -229 415 s caduosc;
#X obj -229 349 r godata;
#N canvas 377 98 279 278 channelnorm 0;
#X obj -150 20 inlet;
#X obj -150 184 outlet;
#X obj -150 56 cad_stretch;
#X obj -87 28 r stretchp;
#X obj -150 141 abs;
#X obj -150 85 div 1;
#X obj -150 114 - 47;
#X connect 0 0 2 0;
#X connect 2 0 5 0;
#X connect 3 0 2 1;
#X connect 4 0 1 0;
#X connect 5 0 6 0;
#X connect 6 0 4 0;
#X restore -220 442 pd channelnorm;
#X obj -220 488 pack f f;
#X obj -220 529 s caduosc;
#X obj -220 463 r godata;
#N canvas 377 98 279 278 channelnorm 0;
#X obj -150 20 inlet;
#X obj -150 184 outlet;
#X obj -150 56 cad_stretch;
#X obj -87 28 r stretchp;
#X obj -150 141 abs;
#X obj -150 85 div 1;
#X obj -150 114 - 47;
#X connect 0 0 2 0;
#X connect 2 0 5 0;
#X connect 3 0 2 1;
#X connect 4 0 1 0;
#X connect 5 0 6 0;
#X connect 6 0 4 0;
#X restore -70 87 pd channelnorm;
#X obj -70 133 pack f f;
#X obj -70 174 s caduosc;
#X obj -70 108 r godata;
#N canvas 377 98 279 278 channelnorm 0;
#X obj -150 20 inlet;
#X obj -150 184 outlet;
#X obj -150 56 cad_stretch;
#X obj -87 28 r stretchp;
#X obj -150 141 abs;
#X obj -150 85 div 1;
#X obj -150 114 - 47;
#X connect 0 0 2 0;
#X connect 2 0 5 0;
#X connect 3 0 2 1;
#X connect 4 0 1 0;
#X connect 5 0 6 0;
#X connect 6 0 4 0;
#X restore -54 207 pd channelnorm;
#X obj -54 253 pack f f;
#X obj -54 294 s caduosc;
#X obj -54 228 r godata;
#N canvas 377 98 279 278 channelnorm 0;
#X obj -150 20 inlet;
#X obj -150 184 outlet;
#X obj -150 56 cad_stretch;
#X obj -87 28 r stretchp;
#X obj -150 141 abs;
#X obj -150 85 div 1;
#X obj -150 114 - 47;
#X connect 0 0 2 0;
#X connect 2 0 5 0;
#X connect 3 0 2 1;
#X connect 4 0 1 0;
#X connect 5 0 6 0;
#X connect 6 0 4 0;
#X restore -41 328 pd channelnorm;
#X obj -41 374 pack f f;
#X obj -41 415 s caduosc;
#X obj -41 349 r godata;
#N canvas 377 98 279 278 channelnorm 0;
#X obj -150 20 inlet;
#X obj -150 184 outlet;
#X obj -150 56 cad_stretch;
#X obj -87 28 r stretchp;
#X obj -150 141 abs;
#X obj -150 85 div 1;
#X obj -150 114 - 47;
#X connect 0 0 2 0;
#X connect 2 0 5 0;
#X connect 3 0 2 1;
#X connect 4 0 1 0;
#X connect 5 0 6 0;
#X connect 6 0 4 0;
#X restore -32 442 pd channelnorm;
#X obj -32 488 pack f f;
#X obj -32 529 s caduosc;
#X obj -32 463 r godata;
#X text 352 253 1!;
#X text 259 226 2!;
#X text 160 222 3!;
#X msg -620 266 /drawarea 1 47 1 \$2 255 0 0;
#X msg -607 387 /drawarea 2 47 2 \$2 255 0 0;
#X msg -598 501 /drawarea 3 47 3 \$2 255 0 0;
#X msg -447 145 /drawarea 4 47 4 \$2 255 0 0;
#X msg -431 265 /drawarea 5 47 5 \$2 255 0 0;
#X msg -418 386 /drawarea 6 47 6 \$2 255 0 0;
#X msg -409 500 /drawarea 7 47 7 \$2 255 0 0;
#X msg -258 153 /drawarea 8 47 8 \$2 255 0 0;
#X msg -242 273 /drawarea 9 47 9 \$2 255 0 0;
#X msg -229 394 /drawarea 10 47 10 \$2 255 0 0;
#X msg -220 508 /drawarea 11 47 11 \$2 255 0 0;
#X msg -70 153 /drawarea 12 47 12 \$2 255 0 0;
#X msg -54 273 /drawarea 13 47 13 \$2 255 0 0;
#X msg -41 394 /drawarea 14 47 14 \$2 255 0 0;
#X msg -32 508 /drawarea 15 47 15 \$2 255 0 0;
#N canvas 581 167 279 278 channelnorm 0;
#X obj -150 20 inlet;
#X obj -150 184 outlet;
#X obj -150 56 cad_stretch;
#X obj -150 85 div 1;
#X obj -87 28 r stretchp2;
#X connect 0 0 2 0;
#X connect 2 0 3 0;
#X connect 3 0 1 0;
#X connect 4 0 2 1;
#X restore 368 31 pd channelnorm;
#X obj 323 132 pack f f;
#X msg -636 146 /drawarea 0 47 0 \$2 255 0 0;
#X obj -636 126 pack f f;
#X msg 323 200 /clear 0 0 \$2;
#X connect 0 1 2 0;
#X connect 0 1 89 0;
#X connect 0 2 11 0;
#X connect 0 3 15 0;
#X connect 0 4 19 0;
#X connect 0 5 23 0;
#X connect 0 6 27 0;
#X connect 0 7 31 0;
#X connect 0 8 35 0;
#X connect 0 9 39 0;
#X connect 0 10 43 0;
#X connect 0 11 47 0;
#X connect 0 12 51 0;
#X connect 0 13 55 0;
#X connect 0 14 59 0;
#X connect 0 15 63 0;
#X connect 0 16 67 0;
#X connect 1 0 0 0;
#X connect 2 0 92 1;
#X connect 4 0 5 0;
#X connect 6 0 9 0;
#X connect 9 0 4 0;
#X connect 9 1 8 0;
#X connect 9 2 90 0;
#X connect 10 0 92 0;
#X connect 11 0 12 1;
#X connect 12 0 74 0;
#X connect 14 0 12 0;
#X connect 15 0 16 1;
#X connect 16 0 75 0;
#X connect 18 0 16 0;
#X connect 19 0 20 1;
#X connect 20 0 76 0;
#X connect 22 0 20 0;
#X connect 23 0 24 1;
#X connect 24 0 77 0;
#X connect 26 0 24 0;
#X connect 27 0 28 1;
#X connect 28 0 78 0;
#X connect 30 0 28 0;
#X connect 31 0 32 1;
#X connect 32 0 79 0;
#X connect 34 0 32 0;
#X connect 35 0 36 1;
#X connect 36 0 80 0;
#X connect 38 0 36 0;
#X connect 39 0 40 1;
#X connect 40 0 81 0;
#X connect 42 0 40 0;
#X connect 43 0 44 1;
#X connect 44 0 82 0;
#X connect 46 0 44 0;
#X connect 47 0 48 1;
#X connect 48 0 83 0;
#X connect 50 0 48 0;
#X connect 51 0 52 1;
#X connect 52 0 84 0;
#X connect 54 0 52 0;
#X connect 55 0 56 1;
#X connect 56 0 85 0;
#X connect 58 0 56 0;
#X connect 59 0 60 1;
#X connect 60 0 86 0;
#X connect 62 0 60 0;
#X connect 63 0 64 1;
#X connect 64 0 87 0;
#X connect 66 0 64 0;
#X connect 67 0 68 1;
#X connect 68 0 88 0;
#X connect 70 0 68 0;
#X connect 74 0 13 0;
#X connect 75 0 17 0;
#X connect 76 0 21 0;
#X connect 77 0 25 0;
#X connect 78 0 29 0;
#X connect 79 0 33 0;
#X connect 80 0 37 0;
#X connect 81 0 41 0;
#X connect 82 0 45 0;
#X connect 83 0 49 0;
#X connect 84 0 53 0;
#X connect 85 0 57 0;
#X connect 86 0 61 0;
#X connect 87 0 65 0;
#X connect 88 0 69 0;
#X connect 89 0 90 1;
#X connect 90 0 93 0;
#X connect 91 0 3 0;
#X connect 92 0 91 0;
#X connect 93 0 7 0;
#X restore -791 490 pd hugestuff;
#X obj -849 171 loadbang;
#X obj -747 287 s stretchp;
#X msg -1168 255 /setautoupdate 0;
#X obj -1181 281 s caduosc;
#X msg -1172 229 /chgrect 40 10;
#X obj -757 237 s stretchp2;
#X obj -1174 71 r caduosc;
#X obj -1201 101 spigot;
#X obj -1135 193 bng 15 250 50 0 empty empty empty 17 7 0 10 -262144
-1 -1;
#X obj -1179 479 metro 15;
#X obj -734 420 import mrpeach;
#X text -953 69 1- change to velho's address and port and then click
it to connect.;
#X text -1121 324 3- click here to tell PD to start processing audio.
;
#X text -1146 408 4- click here to start display some stuff \; D;
#X text -1186 5 Velho usage example with Puredata Start velho with
no parameters (640x480 resolution).;
#X obj -712 148 hsl 160 15 100 1000 0 0 empty empty empty -2 -8 0 10
-1 -258113 -258113 5000 1;
#X floatatom -689 174 5 0 0 0 - - -;
#X msg -698 209 inb 0 \$1 \, outb 0 255;
#X msg -697 254 inb 0 \$1 \, outb 0 47;
#X text -1113 190 2- press this button after connecting.;
#X text -1173 35 by Cadu <cadu.coelho@gmail.com>;
#X msg -842 208 inb 0 400 \, outb 0 255;
#X msg -851 261 inb 0 400 \, outb 0 47;
#X text -740 131 >>>> fiddle with this slider :D <<<<;
#X connect 0 0 8 0;
#X connect 3 0 6 0;
#X connect 3 0 20 1;
#X connect 4 0 3 0;
#X connect 5 0 3 0;
#X connect 7 0 3 0;
#X connect 8 0 12 0;
#X connect 9 0 22 0;
#X connect 10 0 22 0;
#X connect 13 0 35 0;
#X connect 13 0 34 0;
#X connect 15 0 16 0;
#X connect 17 0 16 0;
#X connect 19 0 20 0;
#X connect 20 0 5 0;
#X connect 21 0 17 0;
#X connect 21 0 15 0;
#X connect 22 0 11 0;
#X connect 28 0 29 0;
#X connect 28 0 30 0;
#X connect 28 0 31 0;
#X connect 30 0 18 0;
#X connect 31 0 14 0;
#X connect 34 0 18 0;
#X connect 35 0 14 0;
#X coords 0 0 1 1 85 60 0;
