#N canvas 698 45 629 541 10;
#X obj 76 54 route inb outb;
#X obj 76 178 expr $f2 - $f1;
#X obj 76 93 unpack f;
#X obj 116 156 expr $f2 - $f1;
#X obj 76 237 pack f f;
#X obj 116 210 t b f;
#X obj 76 271 expr $f2 / $f1;
#X obj 29 288 *;
#X obj 29 146 -;
#X obj 76 23 inlet;
#X obj 29 23 inlet;
#X obj 29 412 outlet;
#X obj 29 329 +;
#X obj 29 375 clip;
#X obj 116 312 unpack f f;
#X connect 0 0 1 0;
#X connect 0 0 2 0;
#X connect 0 1 3 0;
#X connect 0 1 14 0;
#X connect 1 0 4 0;
#X connect 2 0 8 1;
#X connect 3 0 5 0;
#X connect 4 0 6 0;
#X connect 5 0 4 0;
#X connect 5 1 4 1;
#X connect 6 0 7 1;
#X connect 7 0 12 0;
#X connect 8 0 7 0;
#X connect 9 0 0 0;
#X connect 10 0 8 0;
#X connect 12 0 13 0;
#X connect 13 0 11 0;
#X connect 14 0 12 1;
#X connect 14 0 13 1;
#X connect 14 1 13 2;
