#N canvas 548 62 648 496 10;
#X obj -495 -118 inlet~;
#X msg -364 -22 start;
#X obj -365 -95 bang~;
#X obj -365 -66 s dspbang;
#X obj -492 269 outlet;
#X obj -492 187 pack f f f f f f f f f f f f f f f f f f f f f f f
f f f f f f f f f;
#X obj -364 -45 r dspbang;
#X obj -492 321 unpack f f f f f f f f f f f f f f f f f f f f f f
f f f f f f f f f f;
#X obj -518 45 r dspbang;
#X obj -518 111 tabread amplitude;
#X obj -491 45 r dspbang;
#X obj -491 111 tabread amplitude;
#X obj -463 45 r dspbang;
#X obj -463 111 tabread amplitude;
#X obj -436 45 r dspbang;
#X obj -436 111 tabread amplitude;
#X obj -409 45 r dspbang;
#X obj -409 111 tabread amplitude;
#X obj -382 45 r dspbang;
#X obj -382 111 tabread amplitude;
#X obj -354 45 r dspbang;
#X obj -354 111 tabread amplitude;
#X obj -327 45 r dspbang;
#X obj -327 111 tabread amplitude;
#X obj -300 45 r dspbang;
#X obj -300 111 tabread amplitude;
#X obj -273 45 r dspbang;
#X obj -273 111 tabread amplitude;
#X obj -245 45 r dspbang;
#X obj -245 111 tabread amplitude;
#X obj -218 45 r dspbang;
#X obj -218 111 tabread amplitude;
#X obj -191 45 r dspbang;
#X obj -191 111 tabread amplitude;
#X obj -164 45 r dspbang;
#X obj -164 111 tabread amplitude;
#X obj -136 45 r dspbang;
#X obj -136 111 tabread amplitude;
#X obj -109 45 r dspbang;
#X obj -109 111 tabread amplitude;
#X obj -521 60 r dspbang;
#X obj -521 126 tabread amplitude;
#X obj -494 60 r dspbang;
#X obj -494 126 tabread amplitude;
#X obj -466 60 r dspbang;
#X obj -466 126 tabread amplitude;
#X obj -439 60 r dspbang;
#X obj -439 126 tabread amplitude;
#X obj -412 60 r dspbang;
#X obj -412 126 tabread amplitude;
#X obj -385 60 r dspbang;
#X obj -385 126 tabread amplitude;
#X obj -357 60 r dspbang;
#X obj -357 126 tabread amplitude;
#X obj -330 60 r dspbang;
#X obj -330 126 tabread amplitude;
#X obj -303 60 r dspbang;
#X obj -303 126 tabread amplitude;
#X obj -276 60 r dspbang;
#X obj -276 126 tabread amplitude;
#X obj -248 60 r dspbang;
#X obj -248 126 tabread amplitude;
#X obj -221 60 r dspbang;
#X obj -221 126 tabread amplitude;
#X obj -194 60 r dspbang;
#X obj -194 126 tabread amplitude;
#X obj -167 60 r dspbang;
#X obj -167 126 tabread amplitude;
#X obj -139 60 r dspbang;
#X obj -139 126 tabread amplitude;
#X obj -112 60 r dspbang;
#X obj -112 126 tabread amplitude;
#X msg -518 75 0;
#X msg -491 75 1;
#X msg -463 75 2;
#X msg -436 75 3;
#X msg -409 75 4;
#X msg -382 75 5;
#X msg -354 75 6;
#X msg -327 75 7;
#X msg -300 75 8;
#X msg -273 75 9;
#X msg -245 75 10;
#X msg -218 75 11;
#X msg -191 75 12;
#X msg -164 75 13;
#X msg -136 75 14;
#X msg -109 75 15;
#X msg -521 90 16;
#X msg -494 90 17;
#X msg -466 90 18;
#X msg -439 90 19;
#X msg -412 90 20;
#X msg -385 90 21;
#X msg -357 90 22;
#X msg -330 90 23;
#X msg -303 90 24;
#X msg -276 90 25;
#X msg -248 90 26;
#X msg -221 90 27;
#X msg -194 90 28;
#X msg -167 90 29;
#X msg -139 90 30;
#X msg -112 90 31;
#X text -292 -104 Cadu's simple spectrum analyzer!;
#X obj -496 -82 rfft~;
#X obj -496 -44 *~;
#X obj -469 -45 *~;
#X obj -496 -9 sqrt~;
#X obj -447 269 outlet~;
#X text -496 299 Use this to get the data out!;
#X text -398 269 <--raw magnitude data!;
#X obj -409 8 tabwrite~ amplitude;
#X text -282 6 comment;
#X obj -409 26 table amplitude 2048;
#X obj -145 -35 block~ 1024;
#X connect 0 0 105 0;
#X connect 1 0 112 0;
#X connect 2 0 3 0;
#X connect 5 0 4 0;
#X connect 6 0 1 0;
#X connect 8 0 72 0;
#X connect 9 0 5 0;
#X connect 10 0 73 0;
#X connect 11 0 5 1;
#X connect 12 0 74 0;
#X connect 13 0 5 2;
#X connect 14 0 75 0;
#X connect 15 0 5 3;
#X connect 16 0 76 0;
#X connect 17 0 5 4;
#X connect 18 0 77 0;
#X connect 19 0 5 5;
#X connect 20 0 78 0;
#X connect 21 0 5 6;
#X connect 22 0 79 0;
#X connect 23 0 5 7;
#X connect 24 0 80 0;
#X connect 25 0 5 8;
#X connect 26 0 81 0;
#X connect 27 0 5 9;
#X connect 28 0 82 0;
#X connect 29 0 5 10;
#X connect 30 0 83 0;
#X connect 31 0 5 11;
#X connect 32 0 84 0;
#X connect 33 0 5 12;
#X connect 34 0 85 0;
#X connect 35 0 5 13;
#X connect 36 0 86 0;
#X connect 37 0 5 14;
#X connect 38 0 87 0;
#X connect 39 0 5 15;
#X connect 40 0 88 0;
#X connect 41 0 5 16;
#X connect 42 0 89 0;
#X connect 43 0 5 17;
#X connect 44 0 90 0;
#X connect 45 0 5 18;
#X connect 46 0 91 0;
#X connect 47 0 5 19;
#X connect 48 0 92 0;
#X connect 49 0 5 20;
#X connect 50 0 93 0;
#X connect 51 0 5 21;
#X connect 52 0 94 0;
#X connect 53 0 5 22;
#X connect 54 0 95 0;
#X connect 55 0 5 23;
#X connect 56 0 96 0;
#X connect 57 0 5 24;
#X connect 58 0 97 0;
#X connect 59 0 5 25;
#X connect 60 0 98 0;
#X connect 61 0 5 26;
#X connect 62 0 99 0;
#X connect 63 0 5 27;
#X connect 64 0 100 0;
#X connect 65 0 5 28;
#X connect 66 0 101 0;
#X connect 67 0 5 29;
#X connect 68 0 102 0;
#X connect 69 0 5 30;
#X connect 70 0 103 0;
#X connect 71 0 5 31;
#X connect 72 0 9 0;
#X connect 73 0 11 0;
#X connect 74 0 13 0;
#X connect 75 0 15 0;
#X connect 76 0 17 0;
#X connect 77 0 19 0;
#X connect 78 0 21 0;
#X connect 79 0 23 0;
#X connect 80 0 25 0;
#X connect 81 0 27 0;
#X connect 82 0 29 0;
#X connect 83 0 31 0;
#X connect 84 0 33 0;
#X connect 85 0 35 0;
#X connect 86 0 37 0;
#X connect 87 0 39 0;
#X connect 88 0 41 0;
#X connect 89 0 43 0;
#X connect 90 0 45 0;
#X connect 91 0 47 0;
#X connect 92 0 49 0;
#X connect 93 0 51 0;
#X connect 94 0 53 0;
#X connect 95 0 55 0;
#X connect 96 0 57 0;
#X connect 97 0 59 0;
#X connect 98 0 61 0;
#X connect 99 0 63 0;
#X connect 100 0 65 0;
#X connect 101 0 67 0;
#X connect 102 0 69 0;
#X connect 103 0 71 0;
#X connect 105 0 106 0;
#X connect 105 0 106 1;
#X connect 105 1 107 0;
#X connect 105 1 107 1;
#X connect 106 0 108 0;
#X connect 107 0 108 0;
#X connect 108 0 109 0;
#X connect 108 0 112 0;
